<svg width="44" height="44" viewBox="0 0 44 44" fill="none" xmlns="http://www.w3.org/2000/svg">
<rect x="0.5" y="0.5" width="43" height="43" fill="white"/>
<rect x="0.5" y="0.5" width="43" height="43" stroke="#E9EAF0"/>
<g clip-path="url(#clip0_85_1645)">
<path d="M25.7491 12C24.6828 12.0737 23.4366 12.7562 22.7103 13.645C22.0479 14.4512 21.5029 15.6487 21.7154 16.8125C22.8803 16.8487 24.0841 16.15 24.7816 15.2462C25.4341 14.405 25.9278 13.215 25.7491 12Z" fill="black"/>
<path d="M29.9628 18.7101C28.9391 17.4264 27.5003 16.6814 26.1416 16.6814C24.3478 16.6814 23.5891 17.5401 22.3429 17.5401C21.0579 17.5401 20.0816 16.6839 18.5304 16.6839C17.0066 16.6839 15.3841 17.6151 14.3554 19.2076C12.9092 21.4501 13.1567 25.6663 15.5004 29.2576C16.3391 30.5426 17.4591 31.9876 18.9241 32.0001C20.2279 32.0126 20.5954 31.1638 22.3616 31.1551C24.1278 31.1451 24.4628 32.0113 25.7641 31.9976C27.2303 31.9863 28.4116 30.3851 29.2503 29.1001C29.8516 28.1788 30.0753 27.7151 30.5416 26.6751C27.1503 25.3838 26.6066 20.5614 29.9628 18.7101Z" fill="black"/>
</g>
<defs>
<clipPath id="clip0_85_1645">
<rect width="20" height="20" fill="white" transform="translate(12 12)"/>
</clipPath>
</defs>
</svg>
