<svg width="24" height="25" viewBox="0 0 24 25" fill="none" xmlns="http://www.w3.org/2000/svg">
<path d="M5.26907 10.2499C5.26783 9.36045 5.44265 8.47951 5.78346 7.6579C6.12427 6.83628 6.62433 6.09025 7.2548 5.4628C7.88528 4.83535 8.63371 4.33889 9.45696 4.00204C10.2802 3.66519 11.162 3.49461 12.0514 3.50013C15.763 3.52772 18.7317 6.61275 18.7317 10.3347V10.9999C18.7317 14.3577 19.4342 16.3061 20.053 17.371C20.1196 17.4848 20.1551 17.6142 20.1558 17.746C20.1565 17.8779 20.1224 18.0076 20.057 18.1221C19.9915 18.2366 19.8971 18.3318 19.7831 18.3982C19.6691 18.4645 19.5397 18.4996 19.4078 18.4999H4.59225C4.46037 18.4996 4.3309 18.4645 4.21692 18.3981C4.10294 18.3318 4.00847 18.2366 3.94304 18.122C3.87762 18.0075 3.84355 17.8778 3.84428 17.7459C3.84501 17.614 3.88051 17.4846 3.94719 17.3709C4.56625 16.3059 5.26907 14.3575 5.26907 10.9999L5.26907 10.2499Z" stroke="#001744" stroke-width="1.5" stroke-linecap="round" stroke-linejoin="round"/>
<path d="M9 18.5V19.25C9 20.0456 9.31607 20.8087 9.87868 21.3713C10.4413 21.9339 11.2044 22.25 12 22.25C12.7956 22.25 13.5587 21.9339 14.1213 21.3713C14.6839 20.8087 15 20.0456 15 19.25V18.5" stroke="#001744" stroke-width="1.5" stroke-linecap="round" stroke-linejoin="round"/>
</svg>
