<svg width="72" height="72" viewBox="0 0 72 72" fill="none" xmlns="http://www.w3.org/2000/svg">
<rect width="72" height="72" fill="white"/>
<path opacity="0.2" d="M27 27V33.887C27 38.8496 30.9693 42.963 35.9318 42.9997C37.1194 43.0088 38.297 42.7826 39.3968 42.3344C40.4966 41.8861 41.4968 41.2246 42.3398 40.388C43.1828 39.5514 43.8518 38.5563 44.3084 37.4599C44.7649 36.3635 45 35.1876 45 34V27C45 26.7348 44.8946 26.4804 44.7071 26.2929C44.5196 26.1054 44.2652 26 44 26H28C27.7348 26 27.4804 26.1054 27.2929 26.2929C27.1054 26.4804 27 26.7348 27 27Z" fill="#001744"/>
<path d="M27 27V33.887C27 38.8496 30.9693 42.963 35.9318 42.9997C37.1194 43.0088 38.297 42.7826 39.3968 42.3344C40.4966 41.8861 41.4968 41.2246 42.3398 40.388C43.1828 39.5514 43.8518 38.5563 44.3084 37.4599C44.7649 36.3635 45 35.1876 45 34V27C45 26.7348 44.8946 26.4804 44.7071 26.2929C44.5196 26.1054 44.2652 26 44 26H28C27.7348 26 27.4804 26.1054 27.2929 26.2929C27.1054 26.4804 27 26.7348 27 27Z" stroke="#001744" stroke-width="2" stroke-linecap="round" stroke-linejoin="round"/>
<path d="M32 48H40" stroke="#001744" stroke-width="2" stroke-linecap="round" stroke-linejoin="round"/>
<path d="M36 43V48" stroke="#001744" stroke-width="2" stroke-linecap="round" stroke-linejoin="round"/>
<path d="M44.7773 36H46.0004C47.0613 36 48.0787 35.5786 48.8288 34.8284C49.579 34.0783 50.0004 33.0609 50.0004 32V30C50.0004 29.7348 49.895 29.4804 49.7075 29.2929C49.52 29.1054 49.2656 29 49.0004 29H45.0004" stroke="#001744" stroke-width="2" stroke-linecap="round" stroke-linejoin="round"/>
<path d="M27.2458 36H25.9844C24.9235 36 23.9061 35.5786 23.1559 34.8284C22.4058 34.0783 21.9844 33.0609 21.9844 32V30C21.9844 29.7348 22.0897 29.4804 22.2773 29.2929C22.4648 29.1054 22.7192 29 22.9844 29H26.9844" stroke="#001744" stroke-width="1.5" stroke-linecap="round" stroke-linejoin="round"/>
</svg>
