<svg width="64" height="64" viewBox="0 0 64 64" fill="none" xmlns="http://www.w3.org/2000/svg">
<rect width="64" height="64" fill="white"/>
<path opacity="0.2" d="M31.001 23L23.5414 25.7974C23.3771 25.859 23.2319 25.9627 23.1204 26.0982C23.0088 26.2337 22.9349 26.3962 22.9061 26.5693L20.001 44L37.4317 41.0948C37.6048 41.066 37.7672 40.9921 37.9027 40.8806C38.0382 40.7691 38.142 40.6239 38.2036 40.4596L41.001 33L31.001 23ZM30.5002 35.9996C30.0058 35.9996 29.5224 35.853 29.1113 35.5782C28.7002 35.3035 28.3798 34.9131 28.1905 34.4563C28.0013 33.9995 27.9518 33.4968 28.0483 33.0118C28.1447 32.5269 28.3828 32.0814 28.7325 31.7318C29.0821 31.3822 29.5276 31.1441 30.0125 31.0476C30.4975 30.9511 31.0001 31.0007 31.457 31.1899C31.9138 31.3791 32.3042 31.6995 32.5789 32.1106C32.8536 32.5218 33.0002 33.0051 33.0002 33.4996C33.0002 33.8279 32.9356 34.153 32.8099 34.4563C32.6843 34.7596 32.5002 35.0352 32.268 35.2673C32.0359 35.4995 31.7603 35.6836 31.457 35.8093C31.1536 35.9349 30.8286 35.9996 30.5002 35.9996Z" fill="#58A6FD"/>
<path d="M30.5 36C31.8807 36 33 34.8807 33 33.5C33 32.1193 31.8807 31 30.5 31C29.1193 31 28 32.1193 28 33.5C28 34.8807 29.1193 36 30.5 36Z" stroke="#58A6FD" stroke-width="2" stroke-linecap="round" stroke-linejoin="round"/>
<path d="M20.0005 44.0002L28.732 35.2676" stroke="#58A6FD" stroke-width="2" stroke-linecap="round" stroke-linejoin="round"/>
<path d="M20.0005 44L37.4312 41.0949C37.6043 41.066 37.7668 40.9921 37.9023 40.8806C38.0377 40.7691 38.1415 40.6239 38.2031 40.4596L41.0005 33L31.0005 23L23.5409 25.7974C23.3766 25.859 23.2314 25.9627 23.1199 26.0982C23.0083 26.2337 22.9345 26.3962 22.9056 26.5693L20.0005 44Z" stroke="#58A6FD" stroke-width="2" stroke-linecap="round" stroke-linejoin="round"/>
<path d="M41.0005 33.0008L44.2934 29.7079C44.3862 29.6151 44.4599 29.5048 44.5102 29.3835C44.5604 29.2622 44.5863 29.1321 44.5863 29.0008C44.5863 28.8695 44.5604 28.7395 44.5102 28.6181C44.4599 28.4968 44.3862 28.3866 44.2934 28.2937L35.7076 19.7079C35.5201 19.5204 35.2657 19.415 35.0005 19.415C34.7353 19.415 34.4809 19.5204 34.2934 19.7079L31.0005 23.0008" stroke="#58A6FD" stroke-width="2" stroke-linecap="round" stroke-linejoin="round"/>
</svg>
