<svg width="24" height="24" viewBox="0 0 24 24" fill="none" xmlns="http://www.w3.org/2000/svg">
<path d="M12.0004 16.5C14.4856 16.5 16.5004 14.4853 16.5004 12C16.5004 9.51472 14.4856 7.5 12.0004 7.5C9.51508 7.5 7.50037 9.51472 7.50037 12C7.50037 14.4853 9.51508 16.5 12.0004 16.5Z" stroke="#8C94A3" stroke-width="1.5" stroke-linecap="round" stroke-linejoin="round"/>
<path d="M11.5197 4.13946L9.7507 2.81309C9.65579 2.74169 9.54526 2.69387 9.42824 2.67356C9.31122 2.65326 9.19104 2.66106 9.07762 2.69631C8.52974 2.86788 7.99819 3.08781 7.48926 3.35349C7.3839 3.40875 7.2932 3.48828 7.22463 3.5855C7.15607 3.68272 7.11161 3.79486 7.09493 3.91265L6.7822 6.1018C6.663 6.20746 6.5463 6.31736 6.4321 6.4315C6.31794 6.54566 6.20801 6.6624 6.10232 6.78169L6.10228 6.78173L3.91351 7.09473C3.79591 7.11136 3.68394 7.1557 3.58684 7.22409C3.48973 7.29248 3.41027 7.38297 3.355 7.4881C3.08891 7.99682 2.86856 8.52819 2.69655 9.07594C2.66113 9.18951 2.65322 9.30988 2.67349 9.42711C2.69375 9.54434 2.74161 9.65507 2.8131 9.75016L4.13993 11.5192C4.13036 11.6783 4.12555 11.8385 4.1255 11.9999C4.1255 12.1614 4.13032 12.3217 4.13994 12.4808L4.13993 12.4808L2.81357 14.2498C2.74217 14.3447 2.69434 14.4553 2.67404 14.5723C2.65374 14.6893 2.66153 14.8095 2.69679 14.9229C2.86836 15.4708 3.08828 16.0023 3.35396 16.5113C3.40923 16.6166 3.48875 16.7073 3.58597 16.7759C3.6832 16.8445 3.79533 16.8889 3.91313 16.9056L6.10227 17.2183C6.20794 17.3375 6.31783 17.4542 6.43197 17.5684C6.54613 17.6826 6.66287 17.7925 6.78217 17.8982L6.7822 17.8983L7.0952 20.087C7.11183 20.2046 7.15617 20.3166 7.22456 20.4137C7.29295 20.5108 7.38344 20.5903 7.48857 20.6455C7.9973 20.9116 8.52867 21.132 9.07641 21.304C9.18998 21.3394 9.31035 21.3473 9.42758 21.327C9.54481 21.3068 9.65554 21.2589 9.75063 21.1874L11.5197 19.8606C11.6787 19.8702 11.839 19.875 12.0004 19.875C12.1619 19.875 12.3221 19.8702 12.4812 19.8606L12.4813 19.8606L14.2503 21.187C14.3452 21.2584 14.4557 21.3062 14.5728 21.3265C14.6898 21.3468 14.81 21.339 14.9234 21.3037C15.4713 21.1322 16.0028 20.9123 16.5117 20.6466C16.6171 20.5913 16.7078 20.5118 16.7764 20.4146C16.8449 20.3173 16.8894 20.2052 16.9061 20.0874L17.2188 17.8983C17.338 17.7926 17.4547 17.6827 17.5689 17.5686C17.6831 17.4544 17.793 17.3377 17.8987 17.2184L17.8987 17.2183L20.0875 16.9053C20.2051 16.8887 20.3171 16.8444 20.4142 16.776C20.5113 16.7076 20.5907 16.6171 20.646 16.512C20.9121 16.0032 21.1324 15.4719 21.3045 14.9241C21.3399 14.8106 21.3478 14.6902 21.3275 14.573C21.3072 14.4557 21.2594 14.345 21.1879 14.2499L19.8611 12.4808C19.8706 12.3218 19.8755 12.1616 19.8755 12.0001C19.8755 11.8387 19.8707 11.6784 19.8611 11.5193L19.8611 11.5192L21.1874 9.75023C21.2588 9.65532 21.3067 9.54479 21.327 9.42777C21.3473 9.31074 21.3395 9.19057 21.3042 9.07715C21.1326 8.52927 20.9127 7.99772 20.647 7.48878C20.5918 7.38343 20.5123 7.29273 20.415 7.22416C20.3178 7.1556 20.2057 7.11114 20.0879 7.09445L17.8987 6.78173C17.7931 6.66253 17.6832 6.54583 17.569 6.43163C17.4549 6.31746 17.3381 6.20754 17.2188 6.10185L17.2188 6.1018L16.9058 3.91304C16.8892 3.79544 16.8448 3.68347 16.7764 3.58636C16.708 3.48926 16.6176 3.40979 16.5124 3.35452C16.0037 3.08843 15.4723 2.86808 14.9246 2.69607C14.811 2.66065 14.6906 2.65275 14.5734 2.67301C14.4562 2.69328 14.3455 2.74113 14.2504 2.81263L12.4813 4.13946C12.3223 4.12988 12.162 4.12507 12.0006 4.12503C11.8391 4.12503 11.6789 4.12984 11.5198 4.13947L11.5197 4.13946Z" stroke="#8C94A3" stroke-width="1.5" stroke-linecap="round" stroke-linejoin="round"/>
</svg>
