<svg width="72" height="72" viewBox="0 0 72 72" fill="none" xmlns="http://www.w3.org/2000/svg">
<rect width="72" height="72" fill="white"/>
<path d="M47 30H25C24.4477 30 24 30.4477 24 31V35C24 35.5523 24.4477 36 25 36H47C47.5523 36 48 35.5523 48 35V31C48 30.4477 47.5523 30 47 30Z" stroke="#FD8E1F" stroke-width="2" stroke-linecap="round" stroke-linejoin="round"/>
<path d="M46 36V45C46 45.2652 45.8946 45.5196 45.7071 45.7071C45.5196 45.8946 45.2652 46 45 46H27C26.7348 46 26.4804 45.8946 26.2929 45.7071C26.1054 45.5196 26 45.2652 26 45V36" stroke="#FD8E1F" stroke-width="2" stroke-linecap="round" stroke-linejoin="round"/>
<path d="M36 30V46" stroke="#FD8E1F" stroke-width="2" stroke-linecap="round" stroke-linejoin="round"/>
<path d="M41.6569 28.5859C40.2426 30.0001 36 30.0001 36 30.0001C36 30.0001 36 25.7575 37.4142 24.3433C37.9769 23.7812 38.7398 23.4656 39.5352 23.4658C40.3305 23.466 41.0932 23.7821 41.6556 24.3445C42.218 24.9069 42.5341 25.6696 42.5343 26.465C42.5346 27.2603 42.2189 28.0232 41.6569 28.5859V28.5859Z" stroke="#FD8E1F" stroke-width="2" stroke-linecap="round" stroke-linejoin="round"/>
<path d="M30.3423 28.5859C31.7565 30.0001 35.9992 30.0001 35.9992 30.0001C35.9992 30.0001 35.9992 25.7575 34.585 24.3433C34.0222 23.7812 33.2593 23.4656 32.464 23.4658C31.6686 23.466 30.9059 23.7821 30.3435 24.3445C29.7811 24.9069 29.4651 25.6696 29.4648 26.465C29.4646 27.2603 29.7802 28.0232 30.3423 28.5859V28.5859Z" stroke="#FD8E1F" stroke-width="2" stroke-linecap="round" stroke-linejoin="round"/>
<path opacity="0.2" d="M46 36V45C46 45.2652 45.8946 45.5196 45.7071 45.7071C45.5196 45.8946 45.2652 46 45 46H27C26.7348 46 26.4804 45.8946 26.2929 45.7071C26.1054 45.5196 26 45.2652 26 45V36H46Z" fill="#FD8E1F"/>
</svg>
