<svg width="40" height="40" viewBox="0 0 40 40" fill="none" xmlns="http://www.w3.org/2000/svg">
<path opacity="0.2" d="M20.3518 34.9964C23.0943 34.9327 25.7668 34.1183 28.0787 32.6416C30.3906 31.165 32.2533 29.0827 33.4643 26.6213L33.464 26.6211L24.9818 21.4042C24.8331 21.3127 24.6669 21.2534 24.4939 21.2301L20.9285 20.7495C20.6608 20.7134 20.3886 20.765 20.1526 20.8966C19.9167 21.0282 19.7297 21.2327 19.6198 21.4795L17.4793 26.2823C17.3798 26.5057 17.348 26.7533 17.3878 26.9946C17.4276 27.2359 17.5373 27.4602 17.7033 27.6397L20.6407 30.817C20.7739 30.961 20.8713 31.1344 20.9251 31.3231C20.9788 31.5117 20.9874 31.7104 20.9502 31.903L20.3518 34.9962L20.3518 34.9964Z" fill="#E34444"/>
<path opacity="0.2" d="M16.8164 6.36816C18.9039 5.8801 21.0737 5.87713 23.1592 6.35742L24.4062 8.5918C24.4201 8.6166 24.4298 8.6433 24.4346 8.6709V8.75391C24.43 8.78168 24.4215 8.80862 24.4082 8.83301L24.3564 8.89941L20.1514 12.7021L20.1045 12.7354L18.1914 13.791C18.1544 13.8114 18.1126 13.8223 18.0703 13.8223H14.7354L14.5703 13.8291C14.2409 13.8534 13.9207 13.9494 13.6328 14.1113L13.4912 14.1982C13.1685 14.4125 12.9068 14.7055 12.7314 15.0488L12.6621 15.1992L11.6826 17.5244L11.6455 17.5166L11.5859 17.4961L11.5342 17.4609C11.5185 17.4474 11.5049 17.4319 11.4932 17.415L11.4639 17.3594L9.66797 12.5674C9.65122 12.5224 9.6483 12.474 9.6582 12.4277L9.67188 12.3828L10.9756 9.29688C12.555 7.96724 14.4079 7.00337 16.4014 6.47266L16.8164 6.36816Z" fill="#E34444" stroke="#E34444" stroke-width="2"/>
<path d="M20 35C28.2843 35 35 28.2843 35 20C35 11.7157 28.2843 5 20 5C11.7157 5 5 11.7157 5 20C5 28.2843 11.7157 35 20 35Z" stroke="#E34444" stroke-width="2" stroke-linecap="round" stroke-linejoin="round"/>
<path d="M33.464 26.6211L24.9818 21.4042C24.8331 21.3127 24.6669 21.2534 24.4939 21.2301L20.9285 20.7495C20.6608 20.7134 20.3886 20.765 20.1526 20.8966C19.9167 21.0282 19.7298 21.2327 19.6198 21.4795L17.4793 26.2823C17.3798 26.5057 17.348 26.7533 17.3878 26.9946C17.4276 27.2359 17.5373 27.4602 17.7033 27.6397L20.6407 30.817C20.7739 30.961 20.8713 31.1344 20.9251 31.3231C20.9788 31.5117 20.9874 31.7104 20.9502 31.903L20.3518 34.9962" stroke="#E34444" stroke-width="2" stroke-linecap="round" stroke-linejoin="round"/>
<path d="M10.1486 8.68848L8.75106 11.9931C8.62645 12.2878 8.61956 12.619 8.73181 12.9186L10.5273 17.7105C10.6008 17.9067 10.7225 18.0813 10.8811 18.2182C11.0397 18.3551 11.2303 18.45 11.4351 18.494L14.7836 19.2137C14.9694 19.2536 15.1436 19.3354 15.293 19.4528C15.4425 19.5702 15.5632 19.7201 15.646 19.8911L16.2406 21.1196C16.343 21.331 16.5028 21.5093 16.7018 21.634C16.9008 21.7588 17.1309 21.825 17.3658 21.825H19.4646" stroke="#E34444" stroke-width="2" stroke-linecap="round" stroke-linejoin="round"/>
<path d="M23.8202 5.49219L25.2786 8.10444C25.4165 8.35138 25.4665 8.63779 25.4206 8.91685C25.3746 9.19592 25.2354 9.45116 25.0256 9.64087L20.8208 13.4436C20.7494 13.5081 20.6708 13.5642 20.5866 13.6107L18.6738 14.667C18.4888 14.7692 18.2809 14.8228 18.0696 14.8228H14.7343C14.4884 14.8228 14.2479 14.8954 14.043 15.0314C13.8381 15.1674 13.6779 15.3609 13.5824 15.5876L12.2812 18.6764" stroke="#E34444" stroke-width="1.5" stroke-linecap="round" stroke-linejoin="round"/>
</svg>
