<svg width="44" height="44" viewBox="0 0 44 44" fill="none" xmlns="http://www.w3.org/2000/svg">
<rect x="0.5" y="0.5" width="43" height="43" fill="white"/>
<rect x="0.5" y="0.5" width="43" height="43" stroke="#E9EAF0"/>
<g clip-path="url(#clip0_80_9414)">
<path d="M16.4324 24.0846L15.7362 26.6835L13.1918 26.7374C12.4313 25.3269 12 23.7132 12 21.9984C12 20.3401 12.4033 18.7764 13.1181 17.3995H13.1187L15.384 17.8148L16.3763 20.0665C16.1686 20.672 16.0554 21.322 16.0554 21.9984C16.0555 22.7324 16.1885 23.4358 16.4324 24.0846Z" fill="#FBBB00"/>
<path d="M31.8253 20.1317C31.9401 20.7366 32 21.3614 32 21.9998C32 22.7158 31.9247 23.4141 31.7813 24.0878C31.2945 26.3801 30.0225 28.3817 28.2605 29.7982L28.2599 29.7977L25.4066 29.6521L25.0028 27.1312C26.172 26.4455 27.0858 25.3724 27.5671 24.0878H22.2198V20.1317H27.6451H31.8253Z" fill="#518EF8"/>
<path d="M28.2599 29.7964L28.2604 29.797C26.5467 31.1744 24.3698 31.9986 22 31.9986C18.1918 31.9986 14.8808 29.8701 13.1918 26.7376L16.4324 24.0849C17.2769 26.3387 19.4511 27.9431 22 27.9431C23.0956 27.9431 24.122 27.647 25.0027 27.1299L28.2599 29.7964Z" fill="#28B446"/>
<path d="M28.3829 14.3022L25.1433 16.9544C24.2318 16.3846 23.1543 16.0555 21.9999 16.0555C19.3933 16.0555 17.1785 17.7335 16.3763 20.0681L13.1186 17.4011H13.118C14.7823 14.1923 18.1351 12 21.9999 12C24.4263 12 26.651 12.8643 28.3829 14.3022Z" fill="#F14336"/>
</g>
<defs>
<clipPath id="clip0_80_9414">
<rect width="20" height="20" fill="white" transform="translate(12 12)"/>
</clipPath>
</defs>
</svg>
