<svg width="40" height="40" viewBox="0 0 40 40" fill="none" xmlns="http://www.w3.org/2000/svg">
<path opacity="0.2" d="M31.25 23.8843L25.5004 29.6338C25.3478 29.7864 25.1583 29.897 24.9502 29.9546C24.7422 30.0122 24.5228 30.015 24.3134 29.9626L15.2576 27.6987C15.0878 27.6562 14.9287 27.5785 14.7908 27.4707L6.25 20.7921L11.3397 11.2168L19.3585 8.87906C19.6449 8.79555 19.9518 8.81726 20.2237 8.94026L25.625 11.3843H22.3928C22.2286 11.3843 22.0661 11.4166 21.9144 11.4794C21.7628 11.5422 21.625 11.6343 21.5089 11.7504L15.3941 17.8651C15.2675 17.9918 15.1695 18.1441 15.1069 18.3119C15.0443 18.4797 15.0185 18.659 15.0312 18.8376C15.0438 19.0163 15.0948 19.1901 15.1805 19.3473C15.2662 19.5046 15.3847 19.6416 15.528 19.749L16.375 20.3843C17.2405 21.0334 18.2931 21.3843 19.375 21.3843C20.4569 21.3843 21.5095 21.0334 22.375 20.3843L24.375 18.8843L31.25 23.8843Z" fill="#23BD33"/>
<path d="M37.6121 19.0287L33.75 20.9598L28.75 11.3845L32.6515 9.43373C32.9446 9.28717 33.2835 9.26158 33.5953 9.36248C33.9071 9.46337 34.1668 9.68268 34.3185 9.97317L38.1611 17.3321C38.238 17.4792 38.2847 17.6402 38.2987 17.8056C38.3126 17.971 38.2935 18.1376 38.2424 18.2955C38.1913 18.4534 38.1092 18.5996 38.001 18.7255C37.8928 18.8514 37.7606 18.9545 37.6121 19.0287V19.0287Z" stroke="#23BD33" stroke-width="2" stroke-linecap="round" stroke-linejoin="round"/>
<path d="M6.24843 20.7928L2.3863 18.8617C2.23782 18.7875 2.10562 18.6844 1.9974 18.5585C1.88919 18.4326 1.80714 18.2865 1.75603 18.1285C1.70492 17.9706 1.68578 17.8041 1.69973 17.6386C1.71368 17.4732 1.76044 17.3122 1.83728 17.1651L5.67993 9.80619C5.83161 9.51569 6.09132 9.29638 6.40311 9.19549C6.71491 9.09459 7.05386 9.12017 7.34698 9.26673L11.2484 11.2175L6.24843 20.7928Z" stroke="#23BD33" stroke-width="2" stroke-linecap="round" stroke-linejoin="round"/>
<path d="M33.75 20.9604L31.25 23.8851L25.5004 29.6347C25.3478 29.7873 25.1583 29.8978 24.9502 29.9554C24.7422 30.0131 24.5228 30.0158 24.3134 29.9635L15.2576 27.6995C15.0878 27.6571 14.9287 27.5794 14.7908 27.4715L6.25 20.793" stroke="#23BD33" stroke-width="2" stroke-linecap="round" stroke-linejoin="round"/>
<path d="M31.2493 23.8848L24.3743 18.8848L22.3743 20.3848C21.5089 21.0339 20.4562 21.3848 19.3743 21.3848C18.2925 21.3848 17.2398 21.0339 16.3743 20.3848L15.5273 19.7495C15.3841 19.6421 15.2656 19.5051 15.1798 19.3478C15.0941 19.1906 15.0432 19.0168 15.0305 18.8381C15.0178 18.6595 15.0436 18.4802 15.1063 18.3124C15.1689 18.1446 15.2668 17.9923 15.3935 17.8656L21.5082 11.7509C21.6243 11.6348 21.7621 11.5427 21.9137 11.4799C22.0654 11.4171 22.2279 11.3848 22.3921 11.3848H28.7493" stroke="#23BD33" stroke-width="2" stroke-linecap="round" stroke-linejoin="round"/>
<path d="M11.3398 11.2168L19.3586 8.87906C19.645 8.79555 19.9519 8.81726 20.2237 8.94026L25.6251 11.3843" stroke="#23BD33" stroke-width="2" stroke-linecap="round" stroke-linejoin="round"/>
<path d="M17.5 33.2596L12.7907 32.0823C12.5996 32.0345 12.4225 31.9423 12.2738 31.813L8.75 28.75" stroke="#23BD33" stroke-width="2" stroke-linecap="round" stroke-linejoin="round"/>
</svg>
