<svg width="264" height="164" viewBox="0 0 264 164" fill="none" xmlns="http://www.w3.org/2000/svg">
<g filter="url(#filter0_d_113_14796)">
<rect width="200" height="100" transform="translate(32 32)" fill="white"/>
<path d="M123.913 76.0865C122.107 76.0865 120.053 76.9234 118.799 78.5992L118.799 78.596L118.799 78.5968L118.799 76.3495H114.493V92.0329H118.799V83.1089C118.799 81.5028 120.044 79.7954 122.35 79.7954C124.132 79.7954 125.976 81.0349 125.976 83.1089V92.0329H130.282V82.3109C130.282 78.7036 127.701 76.0865 123.913 76.0865ZM160.891 76.3503L156.998 87.0333L153.104 76.3503H148.185L154.638 92.0287H159.357L165.81 76.3503H160.891ZM101.636 81.0749C102.369 80.0901 103.537 79.5119 104.948 79.5119C106.5 79.5119 107.678 80.3982 108.286 81.7065L100.762 84.8281C100.557 83.2261 100.967 81.9731 101.636 81.0749ZM109.909 87.2111C108.097 88.5525 107.061 88.8725 105.408 88.8725C103.921 88.8725 102.756 88.4107 101.935 87.6008L112.945 83.0333C112.705 81.3313 112.059 79.8107 111.065 78.6545C109.618 76.9745 107.477 76.0856 104.87 76.0856C100.135 76.0856 96.564 79.579 96.564 84.1931C96.564 88.9269 100.143 92.2996 105.345 92.2996C108.259 92.2996 111.239 90.9184 112.633 89.3047L109.909 87.2111ZM96.1535 88.0786H86.3655V71.6592H82V92.0329H96.1535V88.0786ZM173.543 79.7762C171.138 79.7762 169.391 81.5988 169.391 84.1915C169.391 86.6671 171.241 88.6069 173.601 88.6069C176.006 88.6069 177.752 86.7341 177.752 84.1915C177.752 81.716 175.903 79.7762 173.543 79.7762ZM173.543 92.2974C168.833 92.2974 165.142 88.7885 165.142 84.1915C165.142 79.6461 168.858 76.0856 173.601 76.0856C178.311 76.0856 182 79.5943 182 84.1915C182 88.736 178.285 92.2972 173.543 92.2972V92.2974ZM140.385 79.7762C137.98 79.7762 136.235 81.5988 136.235 84.1915C136.235 86.6671 138.084 88.6069 140.444 88.6069C142.849 88.6069 144.595 86.7341 144.595 84.1915C144.595 81.716 142.745 79.7762 140.385 79.7762ZM140.385 92.2974C135.676 92.2974 131.986 88.7885 131.986 84.1915C131.986 79.6461 135.701 76.0856 140.444 76.0856C145.153 76.0856 148.843 79.5943 148.843 84.1915C148.843 88.736 145.128 92.2972 140.385 92.2972" fill="#E60012"/>
</g>
<defs>
<filter id="filter0_d_113_14796" x="0" y="0" width="264" height="164" filterUnits="userSpaceOnUse" color-interpolation-filters="sRGB">
<feFlood flood-opacity="0" result="BackgroundImageFix"/>
<feColorMatrix in="SourceAlpha" type="matrix" values="0 0 0 0 0 0 0 0 0 0 0 0 0 0 0 0 0 0 127 0" result="hardAlpha"/>
<feOffset/>
<feGaussianBlur stdDeviation="16"/>
<feComposite in2="hardAlpha" operator="out"/>
<feColorMatrix type="matrix" values="0 0 0 0 0.0344445 0 0 0 0 0.102745 0 0 0 0 0.266667 0 0 0 0.07 0"/>
<feBlend mode="normal" in2="BackgroundImageFix" result="effect1_dropShadow_113_14796"/>
<feBlend mode="normal" in="SourceGraphic" in2="effect1_dropShadow_113_14796" result="shape"/>
</filter>
</defs>
</svg>
