<svg width="264" height="164" viewBox="0 0 264 164" fill="none" xmlns="http://www.w3.org/2000/svg">
<g filter="url(#filter0_d_113_14803)">
<rect width="200" height="100" transform="translate(32 32)" fill="white"/>
<path d="M97.9208 72.1504H82.0508V76.0104L83.5008 81.7504L88.0508 82.0104L91.9108 78.1504L99.5508 76.5104L97.9208 72.1504Z" fill="#00C425"/>
<path d="M82.0508 76.0098V91.8798H85.9108L92.3708 91.3398L91.9208 85.8698L82.0508 76.0098Z" fill="#3AF23A"/>
<path d="M85.9102 91.8798H101.78V88.0198L100.09 82.8798L95.7702 82.0098L85.9102 91.8798Z" fill="#006446"/>
<path d="M177.682 79.98L174.192 83.1501L177.682 86.3402V88.1802H177.572L172.392 83.4801V87.9502H170.892V74.4299H172.392V82.8801L177.542 78.19H177.682V79.98ZM109.992 87.9502H117.652V86.4402H111.552V74.8699H109.992V87.9502ZM122.952 78.2C120.602 78.2 118.462 80.11 118.462 83.1901C118.462 86.1802 120.422 88.1602 123.242 88.1602C124.502 88.1602 125.662 87.8402 126.712 87.0802V85.4702C125.612 86.3902 124.392 86.7802 123.292 86.7802C121.602 86.7802 120.102 85.7302 119.962 83.7701H127.102C127.122 83.5801 127.162 83.1601 127.162 83.0001C127.162 79.85 125.262 78.2 122.952 78.2ZM122.962 79.57C124.292 79.57 125.642 80.4301 125.692 82.4601H119.952C120.042 80.8901 121.252 79.57 122.962 79.57ZM148.152 78.2C146.882 78.2 145.962 78.87 145.412 79.86C144.952 78.8 144.102 78.2 142.742 78.2C141.552 78.2 140.672 78.89 140.192 79.81H140.152L139.972 78.39H138.782V87.9402H140.302V81.9101C140.302 80.7401 141.032 79.65 142.352 79.65C143.642 79.65 144.212 80.4101 144.212 81.7901V87.9502H145.732V81.8101C145.732 80.7001 146.472 79.65 147.772 79.65C149.082 79.65 149.642 80.4101 149.642 81.7901V87.9502H151.162V81.5801C151.172 79.58 150.242 78.2 148.152 78.2ZM157.322 78.2C155.042 78.2 152.912 80.13 152.912 83.1901C152.912 86.2102 155.032 88.1602 157.322 88.1602C158.752 88.1602 160.102 87.4902 160.822 86.1602H160.842L161.022 87.9502H162.262V78.4H161.022L160.842 80.19H160.822C160.102 78.88 158.752 78.2 157.322 78.2ZM157.602 79.62C159.402 79.62 160.772 81.0701 160.772 83.1801C160.772 85.2802 159.412 86.7402 157.602 86.7402C155.832 86.7402 154.432 85.3102 154.432 83.2001C154.432 81.0501 155.832 79.62 157.602 79.62ZM168.742 78.29C167.912 78.29 166.652 78.68 166.002 79.92H165.982L165.822 78.4H164.602V87.9502H166.122V82.4501C166.122 80.2401 167.912 79.55 169.382 79.85V78.34C169.182 78.31 168.992 78.29 168.742 78.29ZM136.832 78.18H136.712L132.722 82.1601L128.742 78.18H128.622V80.11L131.692 83.1801L128.622 86.2302V88.1802H128.742L132.702 84.1801L136.712 88.1802H136.832V86.2202L133.732 83.1501L136.832 80.03V78.18ZM177.682 74.6399V74.4299H179.342V74.6399H178.642V76.3H178.392V74.6299C178.382 74.6399 177.682 74.6399 177.682 74.6399ZM180.182 74.4299L180.902 76.01L181.622 74.4299H181.962V76.3H181.722V74.7299L181.002 76.3H180.792L180.082 74.7299V76.3H179.842V74.4199H180.182V74.4299Z" fill="#32323C"/>
<path d="M101.782 88.0204V72.1504H97.9219L91.9219 78.1504L101.782 88.0204Z" fill="#008A44"/>
</g>
<defs>
<filter id="filter0_d_113_14803" x="0" y="0" width="264" height="164" filterUnits="userSpaceOnUse" color-interpolation-filters="sRGB">
<feFlood flood-opacity="0" result="BackgroundImageFix"/>
<feColorMatrix in="SourceAlpha" type="matrix" values="0 0 0 0 0 0 0 0 0 0 0 0 0 0 0 0 0 0 127 0" result="hardAlpha"/>
<feOffset/>
<feGaussianBlur stdDeviation="16"/>
<feComposite in2="hardAlpha" operator="out"/>
<feColorMatrix type="matrix" values="0 0 0 0 0.0344445 0 0 0 0 0.102745 0 0 0 0 0.266667 0 0 0 0.07 0"/>
<feBlend mode="normal" in2="BackgroundImageFix" result="effect1_dropShadow_113_14803"/>
<feBlend mode="normal" in="SourceGraphic" in2="effect1_dropShadow_113_14803" result="shape"/>
</filter>
</defs>
</svg>
