<svg width="20" height="21" viewBox="0 0 20 21" fill="none" xmlns="http://www.w3.org/2000/svg">
<path fill-rule="evenodd" clip-rule="evenodd" d="M4.16699 10.4997C3.70675 10.4997 3.33366 10.8728 3.33366 11.333V17.1663C3.33366 17.6266 3.70675 17.9997 4.16699 17.9997H15.8337C16.2939 17.9997 16.667 17.6266 16.667 17.1663V11.333C16.667 10.8728 16.2939 10.4997 15.8337 10.4997H4.16699ZM1.66699 11.333C1.66699 9.9523 2.78628 8.83301 4.16699 8.83301H15.8337C17.2144 8.83301 18.3337 9.9523 18.3337 11.333V17.1663C18.3337 18.5471 17.2144 19.6663 15.8337 19.6663H4.16699C2.78628 19.6663 1.66699 18.5471 1.66699 17.1663V11.333Z" fill="#999999"/>
<path fill-rule="evenodd" clip-rule="evenodd" d="M10 2.99967C9.11594 2.99967 8.2681 3.35086 7.64298 3.97599C7.01786 4.60111 6.66667 5.44895 6.66667 6.33301V9.66634C6.66667 10.1266 6.29357 10.4997 5.83333 10.4997C5.3731 10.4997 5 10.1266 5 9.66634V6.33301C5 5.00693 5.52678 3.73516 6.46447 2.79747C7.40215 1.85979 8.67392 1.33301 10 1.33301C11.3261 1.33301 12.5979 1.85979 13.5355 2.79747C14.4732 3.73516 15 5.00693 15 6.33301V9.66634C15 10.1266 14.6269 10.4997 14.1667 10.4997C13.7064 10.4997 13.3333 10.1266 13.3333 9.66634V6.33301C13.3333 5.44895 12.9821 4.60111 12.357 3.97599C11.7319 3.35086 10.8841 2.99967 10 2.99967Z" fill="#999999"/>
</svg>
