<svg width="64" height="64" viewBox="0 0 64 64" fill="none" xmlns="http://www.w3.org/2000/svg">
<rect width="64" height="64" fill="white"/>
<path opacity="0.2" d="M21.2795 21.373C21.1305 21.3295 20.9734 21.3214 20.8206 21.3491C20.6679 21.3769 20.5237 21.4399 20.3995 21.533C20.2753 21.6262 20.1745 21.7469 20.1051 21.8858C20.0357 22.0246 19.9995 22.1778 19.9995 22.333V39.6663C19.9995 39.8216 20.0357 39.9747 20.1051 40.1136C20.1745 40.2524 20.2753 40.3732 20.3995 40.4663C20.5237 40.5595 20.6679 40.6224 20.8206 40.6502C20.9734 40.678 21.1305 40.6698 21.2795 40.6263L33.0002 37.2078V24.7915L21.2795 21.373Z" fill="#001744"/>
<path d="M19.9995 22.333V39.6663C19.9995 39.8216 20.0357 39.9747 20.1051 40.1136C20.1745 40.2524 20.2753 40.3732 20.3995 40.4663C20.5237 40.5595 20.6679 40.6224 20.8206 40.6502C20.9734 40.678 21.1305 40.6698 21.2795 40.6263L43.2795 34.2097C43.4872 34.1491 43.6697 34.0228 43.7995 33.8497C43.9293 33.6766 43.9995 33.466 43.9995 33.2497V28.7497C43.9995 28.5333 43.9293 28.3228 43.7995 28.1497C43.6697 27.9766 43.4872 27.8503 43.2795 27.7897L21.2795 21.373C21.1305 21.3295 20.9734 21.3214 20.8206 21.3491C20.6679 21.3769 20.5237 21.4399 20.3995 21.533C20.2753 21.6262 20.1745 21.7469 20.1051 21.8858C20.0357 22.0246 19.9995 22.1778 19.9995 22.333V22.333Z" stroke="#001744" stroke-width="2" stroke-linecap="round" stroke-linejoin="round"/>
<path d="M39 35.4582V40.0001C39 40.2653 38.8946 40.5197 38.7071 40.7072C38.5196 40.8948 38.2652 41.0001 38 41.0001H34C33.7348 41.0001 33.4804 40.8948 33.2929 40.7072C33.1054 40.5197 33 40.2653 33 40.0001V24.792" stroke="#001744" stroke-width="2" stroke-linecap="round" stroke-linejoin="round"/>
</svg>
