<svg width="72" height="72" viewBox="0 0 72 72" fill="none" xmlns="http://www.w3.org/2000/svg">
<rect width="72" height="72" fill="white"/>
<path opacity="0.2" d="M45 39.1076L40.4004 43.7072C40.2783 43.8294 40.1266 43.9178 39.9602 43.9639C39.7938 44.01 39.6182 44.0122 39.4507 43.9703L32.2061 42.1591C32.0702 42.1252 31.943 42.063 31.8326 41.9767L25 36.6339L29.0718 28.9736L35.4868 27.1034C35.716 27.0366 35.9614 27.054 36.1789 27.1524L40.5 29.1076H37.9142C37.7829 29.1076 37.6529 29.1335 37.5315 29.1837C37.4102 29.234 37.3 29.3076 37.2071 29.4005L32.3153 34.2923C32.214 34.3936 32.1356 34.5155 32.0855 34.6497C32.0354 34.784 32.0148 34.9274 32.0249 35.0703C32.0351 35.2132 32.0758 35.3523 32.1444 35.4781C32.213 35.6039 32.3078 35.7134 32.4224 35.7994L33.1 36.3076C33.7924 36.8269 34.6345 37.1076 35.5 37.1076C36.3655 37.1076 37.2076 36.8269 37.9 36.3076L39.5 35.1076L45 39.1076Z" fill="#E34444"/>
<path d="M50.0897 35.223L47 36.7678L43 29.1076L46.1212 27.547C46.3557 27.4297 46.6268 27.4093 46.8763 27.49C47.1257 27.5707 47.3335 27.7461 47.4548 27.9785L50.5289 33.8657C50.5904 33.9834 50.6278 34.1122 50.639 34.2445C50.6501 34.3768 50.6348 34.5101 50.5939 34.6364C50.553 34.7628 50.4874 34.8797 50.4008 34.9804C50.3143 35.0811 50.2085 35.1636 50.0897 35.223V35.223Z" stroke="#E34444" stroke-width="2" stroke-linecap="round" stroke-linejoin="round"/>
<path d="M25.0019 36.634L21.9122 35.0892C21.7934 35.0298 21.6876 34.9473 21.601 34.8466C21.5145 34.7459 21.4488 34.629 21.4079 34.5026C21.3671 34.3763 21.3518 34.243 21.3629 34.1107C21.3741 33.9784 21.4115 33.8496 21.4729 33.7319L24.5471 27.8448C24.6684 27.6124 24.8762 27.4369 25.1256 27.3562C25.3751 27.2755 25.6462 27.2959 25.8807 27.4132L29.0019 28.9738L25.0019 36.634Z" stroke="#E34444" stroke-width="2" stroke-linecap="round" stroke-linejoin="round"/>
<path d="M47 36.7678L45 39.1075L40.4004 43.7072C40.2783 43.8293 40.1266 43.9177 39.9602 43.9638C39.7938 44.0099 39.6182 44.0121 39.4507 43.9702L32.2061 42.159C32.0702 42.1251 31.943 42.0629 31.8326 41.9766L25 36.6338" stroke="#E34444" stroke-width="2" stroke-linecap="round" stroke-linejoin="round"/>
<path d="M45.001 39.1074L39.501 35.1074L37.901 36.3074C37.2086 36.8267 36.3665 37.1074 35.501 37.1074C34.6355 37.1074 33.7934 36.8267 33.101 36.3074L32.4234 35.7992C32.3088 35.7133 32.214 35.6037 32.1454 35.4779C32.0769 35.3521 32.0361 35.213 32.026 35.0701C32.0158 34.9272 32.0365 34.7838 32.0866 34.6496C32.1367 34.5153 32.215 34.3934 32.3163 34.2921L37.2081 29.4003C37.301 29.3075 37.4112 29.2338 37.5326 29.1835C37.6539 29.1333 37.7839 29.1074 37.9152 29.1074H43.001" stroke="#E34444" stroke-width="2" stroke-linecap="round" stroke-linejoin="round"/>
<path d="M29.0703 28.9736L35.4853 27.1034C35.7145 27.0366 35.96 27.054 36.1774 27.1524L40.4985 29.1076" stroke="#E34444" stroke-width="1.5" stroke-linecap="round" stroke-linejoin="round"/>
<path d="M34 46.6077L30.2326 45.6658C30.0797 45.6276 29.938 45.5538 29.8191 45.4504L27 43" stroke="#E34444" stroke-width="1.5" stroke-linecap="round" stroke-linejoin="round"/>
</svg>
