<svg width="264" height="164" viewBox="0 0 264 164" fill="none" xmlns="http://www.w3.org/2000/svg">
<g filter="url(#filter0_d_113_14805)">
<rect width="200" height="100" transform="translate(32 32)" fill="white"/>
<path d="M182.001 80.9825V79.2238H179.817V76.4897L179.744 76.5124L177.693 77.14L177.652 77.1523V79.2239H174.415V78.0698C174.415 77.5325 174.535 77.1212 174.771 76.847C175.007 76.576 175.343 76.4383 175.772 76.4383C176.08 76.4383 176.4 76.5109 176.721 76.6542L176.802 76.6902V74.8381L176.764 74.8241C176.464 74.7164 176.056 74.6621 175.551 74.6621C174.914 74.6621 174.335 74.8007 173.83 75.0755C173.325 75.3506 172.928 75.7433 172.65 76.2427C172.372 76.7414 172.232 77.3175 172.232 77.955V79.2238H170.711V80.9825H172.232V88.3914H174.415V80.9825H177.652V85.6907C177.652 87.6298 178.567 88.6124 180.371 88.6124C180.667 88.6124 180.979 88.5777 181.298 88.5097C181.622 88.4398 181.843 88.3701 181.973 88.2956L182.001 88.2786V86.5037L181.913 86.5624C181.794 86.6413 181.647 86.7058 181.474 86.7538C181.3 86.8027 181.155 86.8271 181.042 86.8271C180.62 86.8271 180.307 86.7133 180.113 86.4886C179.917 86.2618 179.818 85.8653 179.818 85.3106V80.9825H182.001ZM165.836 86.8274C165.043 86.8274 164.419 86.5647 163.978 86.0472C163.535 85.527 163.311 84.7854 163.311 83.8432C163.311 82.8711 163.535 82.1103 163.979 81.581C164.419 81.0551 165.038 80.7882 165.818 80.7882C166.575 80.7882 167.177 81.0431 167.609 81.5462C168.043 82.052 168.263 82.8067 168.263 83.7901C168.263 84.7856 168.056 85.5503 167.648 86.0619C167.242 86.5695 166.633 86.8274 165.836 86.8274ZM165.933 79.0029C164.421 79.0029 163.22 79.4459 162.364 80.3195C161.509 81.1932 161.075 82.4023 161.075 83.9136C161.075 85.3489 161.498 86.5035 162.334 87.3446C163.169 88.186 164.305 88.6122 165.712 88.6122C167.177 88.6122 168.354 88.1631 169.21 87.2774C170.065 86.3926 170.499 85.1949 170.499 83.719C170.499 82.2612 170.092 81.0981 169.289 80.2625C168.486 79.4266 167.357 79.0029 165.933 79.0029ZM157.555 79.0029C156.527 79.0029 155.676 79.266 155.027 79.7846C154.373 80.3063 154.041 80.9905 154.041 81.8184C154.041 82.2488 154.113 82.6311 154.254 82.9554C154.395 83.2807 154.615 83.5671 154.906 83.8075C155.195 84.046 155.642 84.2958 156.233 84.5499C156.73 84.7545 157.101 84.9275 157.337 85.0639C157.567 85.1976 157.73 85.332 157.822 85.4629C157.912 85.591 157.958 85.7662 157.958 85.9825C157.958 86.5985 157.496 86.8981 156.547 86.8981C156.195 86.8981 155.794 86.8246 155.354 86.6797C154.917 86.537 154.505 86.328 154.132 86.06L154.041 85.995V88.0968L154.074 88.1123C154.383 88.2549 154.773 88.3751 155.232 88.4697C155.69 88.5644 156.106 88.6126 156.468 88.6126C157.584 88.6126 158.482 88.3483 159.138 87.8266C159.798 87.3013 160.132 86.601 160.132 85.7444C160.132 85.1264 159.952 84.5965 159.597 84.1691C159.245 83.7452 158.633 83.3561 157.78 83.0121C157.1 82.7393 156.665 82.5128 156.485 82.339C156.312 82.171 156.224 81.9336 156.224 81.6328C156.224 81.3662 156.333 81.1526 156.556 80.9796C156.78 80.8058 157.093 80.7174 157.485 80.7174C157.848 80.7174 158.22 80.7749 158.591 80.8875C158.96 81.0001 159.285 81.1509 159.556 81.3353L159.646 81.3963V79.4026L159.611 79.3879C159.361 79.2806 159.031 79.1888 158.631 79.1143C158.232 79.0403 157.87 79.0029 157.555 79.0029ZM148.35 86.8274C147.558 86.8274 146.933 86.5647 146.493 86.0472C146.05 85.527 145.826 84.7856 145.826 83.8432C145.826 82.8711 146.05 82.1103 146.493 81.581C146.934 81.0551 147.552 80.7882 148.333 80.7882C149.089 80.7882 149.692 81.0431 150.124 81.5462C150.558 82.052 150.778 82.8067 150.778 83.7901C150.778 84.7856 150.571 85.5503 150.162 86.0619C149.757 86.5695 149.148 86.8274 148.35 86.8274ZM148.448 79.0029C146.935 79.0029 145.735 79.4459 144.879 80.3195C144.024 81.1932 143.589 82.4023 143.589 83.9136C143.589 85.3495 144.013 86.5035 144.848 87.3446C145.684 88.186 146.82 88.6122 148.226 88.6122C149.692 88.6122 150.869 88.1631 151.724 87.2774C152.58 86.3926 153.013 85.1949 153.013 83.719C153.013 82.2612 152.607 81.0981 151.804 80.2625C151.001 79.4266 149.871 79.0029 148.448 79.0029ZM140.276 80.8114V79.2238H138.119V88.3912H140.276V83.7017C140.276 82.9043 140.457 82.2492 140.813 81.7544C141.165 81.2655 141.635 81.0178 142.208 81.0178C142.402 81.0178 142.62 81.0498 142.856 81.1131C143.09 81.1761 143.259 81.2445 143.359 81.3165L143.45 81.3822V79.2081L143.415 79.1931C143.214 79.1078 142.93 79.0648 142.57 79.0648C142.029 79.0648 141.544 79.2389 141.128 79.5817C140.764 79.883 140.5 80.2962 140.299 80.8114H140.276ZM134.258 79.0029C133.268 79.0029 132.386 79.2151 131.635 79.6333C130.883 80.0524 130.301 80.6508 129.906 81.4118C129.512 82.1709 129.312 83.0575 129.312 84.0464C129.312 84.9125 129.506 85.7074 129.889 86.408C130.272 87.1097 130.815 87.6587 131.503 88.0394C132.189 88.4197 132.982 88.6125 133.86 88.6125C134.885 88.6125 135.76 88.4076 136.461 88.0036L136.49 87.9873V86.0117L136.399 86.0778C136.081 86.3093 135.726 86.4941 135.344 86.6272C134.963 86.7602 134.616 86.8274 134.311 86.8274C133.465 86.8274 132.785 86.5627 132.292 86.0407C131.798 85.518 131.548 84.7841 131.548 83.8605C131.548 82.9312 131.809 82.1784 132.324 81.6229C132.837 81.0691 133.518 80.7882 134.346 80.7882C135.055 80.7882 135.746 81.0282 136.399 81.5022L136.49 81.5679V79.4862L136.461 79.4698C136.215 79.3321 135.879 79.2185 135.463 79.1323C135.048 79.0463 134.643 79.0029 134.258 79.0029ZM127.826 79.2239H125.67V88.3912H127.826V79.2239ZM126.77 75.3186C126.415 75.3186 126.106 75.4394 125.851 75.6788C125.596 75.9189 125.467 76.2212 125.467 76.578C125.467 76.9291 125.595 77.2259 125.848 77.4596C126.099 77.6927 126.409 77.8108 126.77 77.8108C127.131 77.8108 127.443 77.6927 127.697 77.46C127.953 77.2259 128.083 76.9292 128.083 76.578C128.083 76.2337 127.957 75.9345 127.708 75.6885C127.459 75.443 127.144 75.3186 126.77 75.3186ZM121.39 78.5475V88.3912H123.591V75.5992H120.545L116.673 85.1007L112.916 75.5992H109.746V88.3911H111.814V78.5465H111.885L115.853 88.3912H117.413L121.319 78.5475H121.39Z" fill="#706D6E"/>
<path d="M92.1445 81.4697H82V71.3252H92.1445V81.4697Z" fill="#F1511B"/>
<path d="M103.343 81.4697H93.1992V71.3252H103.343V81.4697Z" fill="#80CC28"/>
<path d="M92.1442 92.6736H82V82.5293H92.1442V92.6736Z" fill="#00ADEF"/>
<path d="M103.343 92.6736H93.1992V82.5293H103.343V92.6736Z" fill="#FBBC09"/>
</g>
<defs>
<filter id="filter0_d_113_14805" x="0" y="0" width="264" height="164" filterUnits="userSpaceOnUse" color-interpolation-filters="sRGB">
<feFlood flood-opacity="0" result="BackgroundImageFix"/>
<feColorMatrix in="SourceAlpha" type="matrix" values="0 0 0 0 0 0 0 0 0 0 0 0 0 0 0 0 0 0 127 0" result="hardAlpha"/>
<feOffset/>
<feGaussianBlur stdDeviation="16"/>
<feComposite in2="hardAlpha" operator="out"/>
<feColorMatrix type="matrix" values="0 0 0 0 0.0344445 0 0 0 0 0.102745 0 0 0 0 0.266667 0 0 0 0.07 0"/>
<feBlend mode="normal" in2="BackgroundImageFix" result="effect1_dropShadow_113_14805"/>
<feBlend mode="normal" in="SourceGraphic" in2="effect1_dropShadow_113_14805" result="shape"/>
</filter>
</defs>
</svg>
