<svg width="264" height="164" viewBox="0 0 264 164" fill="none" xmlns="http://www.w3.org/2000/svg">
<g filter="url(#filter0_d_113_14790)">
<rect width="200" height="100" transform="translate(32 32)" fill="white"/>
<path d="M95.7503 93.771C94.246 94.0351 92.7152 94.1143 91.1317 94.3252L86.3019 80.1791V94.9324C84.7976 95.0907 83.4252 95.3018 82 95.5129V68.4873H86.0117L91.5012 83.8214V68.4873H95.7503V93.771ZM104.064 78.3844C105.7 78.3844 108.208 78.3052 109.712 78.3052V82.5279C107.838 82.5279 105.647 82.5279 104.064 82.6071V88.8885C106.545 88.7302 109.026 88.5189 111.533 88.4397V92.5039L99.841 93.4278V68.4873H111.533V72.7101H104.064V78.3844ZM127.236 72.7102H122.855V92.1348C121.43 92.1348 120.005 92.1348 118.633 92.1875V72.7102H114.251V68.4873H127.236L127.236 72.7102ZM134.098 78.0942H139.878V82.3168H134.098V91.8973H129.954V68.4873H141.752V72.7101H134.098V78.0942ZM148.614 88.2023C151.016 88.2549 153.443 88.44 155.792 88.5717V92.7417C152.018 92.5041 148.244 92.2668 144.391 92.1875V68.4873H148.614V88.2023ZM159.355 93.0321C160.701 93.1114 162.127 93.1906 163.499 93.3487V68.4873H159.355V93.0321ZM182 68.4873L176.642 81.3404L182 95.5129C180.416 95.3018 178.833 95.0115 177.249 94.7475L174.214 86.9356L171.127 94.1143C169.596 93.8502 168.118 93.771 166.587 93.5598L172.024 81.1819L167.115 68.4873H171.654L174.425 75.5868L177.381 68.4873H182Z" fill="#D81F26"/>
</g>
<defs>
<filter id="filter0_d_113_14790" x="0" y="0" width="264" height="164" filterUnits="userSpaceOnUse" color-interpolation-filters="sRGB">
<feFlood flood-opacity="0" result="BackgroundImageFix"/>
<feColorMatrix in="SourceAlpha" type="matrix" values="0 0 0 0 0 0 0 0 0 0 0 0 0 0 0 0 0 0 127 0" result="hardAlpha"/>
<feOffset/>
<feGaussianBlur stdDeviation="16"/>
<feComposite in2="hardAlpha" operator="out"/>
<feColorMatrix type="matrix" values="0 0 0 0 0.0344445 0 0 0 0 0.102745 0 0 0 0 0.266667 0 0 0 0.07 0"/>
<feBlend mode="normal" in2="BackgroundImageFix" result="effect1_dropShadow_113_14790"/>
<feBlend mode="normal" in="SourceGraphic" in2="effect1_dropShadow_113_14790" result="shape"/>
</filter>
</defs>
</svg>
