<svg width="264" height="164" viewBox="0 0 264 164" fill="none" xmlns="http://www.w3.org/2000/svg">
<g filter="url(#filter0_d_113_14799)">
<rect width="200" height="100" transform="translate(32 32)" fill="white"/>
<path fill-rule="evenodd" clip-rule="evenodd" d="M113.992 89.2841L115.24 86.3841C116.588 87.3921 118.384 87.9161 120.156 87.9161C121.464 87.9161 122.292 87.4121 122.292 86.6481C122.272 84.5121 114.456 86.1841 114.396 80.8281C114.376 78.1081 116.792 76.0121 120.216 76.0121C122.252 76.0121 124.284 76.5161 125.736 77.6641L124.568 80.6241C123.24 79.7761 121.588 79.1721 120.016 79.1721C118.948 79.1721 118.244 79.6761 118.244 80.3201C118.264 82.4161 126.14 81.2681 126.22 86.3841C126.22 89.1641 123.864 91.1201 120.48 91.1201C118 91.1161 115.724 90.5321 113.992 89.2841ZM161.916 85.3361C161.292 86.4241 160.124 87.1681 158.772 87.1681C156.776 87.1681 155.168 85.5561 155.168 83.5641C155.168 81.5721 156.78 79.9601 158.772 79.9601C160.12 79.9601 161.292 80.7041 161.916 81.7921L165.36 79.8801C164.072 77.5841 161.592 76.0121 158.772 76.0121C154.6 76.0121 151.216 79.3961 151.216 83.5681C151.216 87.7401 154.6 91.1241 158.772 91.1241C161.612 91.1241 164.072 89.5721 165.36 87.2561L161.916 85.3361ZM127.952 69.7441H132.264V90.8361H127.952V69.7441ZM167.052 69.7441V90.8361H171.364V84.5081L176.48 90.8361H182L175.492 83.3201L181.516 76.3081H176.236L171.36 82.1281V69.7441H167.052Z" fill="black"/>
<path d="M145.076 85.3758C144.452 86.4038 143.164 87.1678 141.712 87.1678C139.716 87.1678 138.108 85.5558 138.108 83.5638C138.108 81.5718 139.72 79.9598 141.712 79.9598C143.164 79.9598 144.452 80.7638 145.076 81.8118V85.3758ZM145.076 76.3118V78.0238C144.372 76.8358 142.62 76.0078 140.784 76.0078C136.996 76.0078 134.016 79.3518 134.016 83.5438C134.016 87.7358 136.996 91.1198 140.784 91.1198C142.616 91.1198 144.368 90.2958 145.076 89.1038V90.8158H149.388V76.3118H145.076Z" fill="black"/>
<path fill-rule="evenodd" clip-rule="evenodd" d="M87.3395 85.3553C87.3395 86.8273 86.1515 88.0153 84.6795 88.0153C83.2075 88.0153 82.0195 86.8233 82.0195 85.3553C82.0195 83.8873 83.2075 82.6953 84.6795 82.6953H87.3395V85.3553ZM88.6675 85.3553C88.6675 83.8833 89.8555 82.6953 91.3275 82.6953C92.7995 82.6953 93.9875 83.8833 93.9875 85.3553V92.0033C93.9875 93.4753 92.7995 94.6633 91.3275 94.6633C89.8555 94.6633 88.6675 93.4753 88.6675 92.0033V85.3553Z" fill="#E01E5A"/>
<path fill-rule="evenodd" clip-rule="evenodd" d="M91.328 74.6794C89.856 74.6794 88.668 73.4914 88.668 72.0194C88.668 70.5474 89.856 69.3594 91.328 69.3594C92.8 69.3594 93.988 70.5474 93.988 72.0194V74.6794H91.328ZM91.328 76.0274C92.8 76.0274 93.988 77.2154 93.988 78.6874C93.988 80.1594 92.8 81.3474 91.328 81.3474H84.66C83.188 81.3474 82 80.1554 82 78.6874C82 77.2194 83.188 76.0274 84.66 76.0274H91.328Z" fill="#36C5F0"/>
<path fill-rule="evenodd" clip-rule="evenodd" d="M101.984 78.6874C101.984 77.2154 103.172 76.0274 104.644 76.0274C106.116 76.0274 107.304 77.2154 107.304 78.6874C107.304 80.1594 106.116 81.3474 104.644 81.3474H101.984V78.6874ZM100.656 78.6874C100.656 80.1594 99.4679 81.3474 97.9959 81.3474C96.5239 81.3474 95.3359 80.1594 95.3359 78.6874V72.0194C95.3359 70.5474 96.5239 69.3594 97.9959 69.3594C99.4679 69.3594 100.656 70.5474 100.656 72.0194V78.6874Z" fill="#2EB67D"/>
<path fill-rule="evenodd" clip-rule="evenodd" d="M97.9959 89.3433C99.4679 89.3433 100.656 90.5313 100.656 92.0033C100.656 93.4753 99.4679 94.6633 97.9959 94.6633C96.5239 94.6633 95.3359 93.4753 95.3359 92.0033V89.3433H97.9959ZM97.9959 88.0153C96.5239 88.0153 95.3359 86.8273 95.3359 85.3553C95.3359 83.8833 96.5239 82.6953 97.9959 82.6953H104.664C106.136 82.6953 107.324 83.8833 107.324 85.3553C107.324 86.8273 106.136 88.0153 104.664 88.0153H97.9959Z" fill="#ECB22E"/>
</g>
<defs>
<filter id="filter0_d_113_14799" x="0" y="0" width="264" height="164" filterUnits="userSpaceOnUse" color-interpolation-filters="sRGB">
<feFlood flood-opacity="0" result="BackgroundImageFix"/>
<feColorMatrix in="SourceAlpha" type="matrix" values="0 0 0 0 0 0 0 0 0 0 0 0 0 0 0 0 0 0 127 0" result="hardAlpha"/>
<feOffset/>
<feGaussianBlur stdDeviation="16"/>
<feComposite in2="hardAlpha" operator="out"/>
<feColorMatrix type="matrix" values="0 0 0 0 0.0344445 0 0 0 0 0.102745 0 0 0 0 0.266667 0 0 0 0.07 0"/>
<feBlend mode="normal" in2="BackgroundImageFix" result="effect1_dropShadow_113_14799"/>
<feBlend mode="normal" in="SourceGraphic" in2="effect1_dropShadow_113_14799" result="shape"/>
</filter>
</defs>
</svg>
