<svg width="72" height="72" viewBox="0 0 72 72" fill="none" xmlns="http://www.w3.org/2000/svg">
<rect width="72" height="72" fill="white"/>
<path opacity="0.2" d="M46 39.9985V45C46 45.2652 45.8946 45.5196 45.7071 45.7071C45.5196 45.8946 45.2652 46 45 46H27C26.7348 46 26.4804 45.8946 26.2929 45.7071C26.1054 45.5196 26 45.2652 26 45V40C24.9391 40 23.9217 39.5786 23.1716 38.8284C22.4214 38.0783 22 37.0609 22 36C22 34.9391 22.4214 33.9217 23.1716 33.1716C23.9217 32.4214 24.9391 32 26 32V29C26 27.9391 26.4214 26.9217 27.1716 26.1716C27.9217 25.4214 28.9391 25 30 25H42C43.0609 25 44.0783 25.4214 44.8284 26.1716C45.5786 26.9217 46 27.9391 46 29V32C47.0609 32 48.0783 32.4214 48.8284 33.1716C49.5786 33.9217 50 34.9391 50 36C50 37.0609 49.5786 38.0783 48.8284 38.8284C48.0783 39.5786 47.0609 40 46 40V39.9985Z" fill="#23BD33"/>
<path d="M30 37H42" stroke="#23BD33" stroke-width="2" stroke-linecap="round" stroke-linejoin="round"/>
<path d="M26 32V29C26 27.9391 26.4214 26.9217 27.1716 26.1716C27.9217 25.4214 28.9391 25 30 25H42C43.0609 25 44.0783 25.4214 44.8284 26.1716C45.5786 26.9217 46 27.9391 46 29V32" stroke="#23BD33" stroke-width="2" stroke-linecap="round" stroke-linejoin="round"/>
<path d="M30 41V36C30 35.2089 29.7654 34.4355 29.3259 33.7777C28.8864 33.1199 28.2616 32.6072 27.5307 32.3045C26.7998 32.0017 25.9956 31.9225 25.2196 32.0769C24.4437 32.2312 23.731 32.6122 23.1716 33.1716C22.6122 33.731 22.2312 34.4437 22.0769 35.2196C21.9225 35.9956 22.0017 36.7998 22.3045 37.5307C22.6072 38.2616 23.1199 38.8864 23.7777 39.3259C24.4355 39.7654 25.2089 40 26 40V45C26 45.2652 26.1054 45.5196 26.2929 45.7071C26.4804 45.8946 26.7348 46 27 46H45C45.2652 46 45.5196 45.8946 45.7071 45.7071C45.8946 45.5196 46 45.2652 46 45V40C46.7911 40 47.5645 39.7654 48.2223 39.3259C48.8801 38.8864 49.3928 38.2616 49.6955 37.5307C49.9983 36.7998 50.0775 35.9956 49.9231 35.2196C49.7688 34.4437 49.3878 33.731 48.8284 33.1716C48.269 32.6122 47.5563 32.2312 46.7804 32.0769C46.0044 31.9225 45.2002 32.0017 44.4693 32.3045C43.7384 32.6072 43.1137 33.1199 42.6741 33.7777C42.2346 34.4355 42 35.2089 42 36V41" stroke="#23BD33" stroke-width="2" stroke-linecap="round" stroke-linejoin="round"/>
</svg>
