<svg width="20" height="17" viewBox="0 0 20 17" fill="none" xmlns="http://www.w3.org/2000/svg">
<path d="M20 2.14592C19.2563 2.47217 18.4637 2.68842 17.6375 2.79342C18.4875 2.28592 19.1363 1.48842 19.4412 0.527168C18.6488 0.999668 17.7738 1.33342 16.8412 1.51967C16.0887 0.718418 15.0162 0.222168 13.8462 0.222168C11.5763 0.222168 9.74875 2.06467 9.74875 4.32342C9.74875 4.64842 9.77625 4.96092 9.84375 5.25842C6.435 5.09217 3.41875 3.45842 1.3925 0.969668C1.03875 1.58342 0.83125 2.28592 0.83125 3.04217C0.83125 4.46217 1.5625 5.72092 2.6525 6.44967C1.99375 6.43717 1.3475 6.24592 0.8 5.94467C0.8 5.95717 0.8 5.97342 0.8 5.98967C0.8 7.98217 2.22125 9.63717 4.085 10.0184C3.75125 10.1097 3.3875 10.1534 3.01 10.1534C2.7475 10.1534 2.4825 10.1384 2.23375 10.0834C2.765 11.7072 4.2725 12.9009 6.065 12.9397C4.67 14.0309 2.89875 14.6884 0.98125 14.6884C0.645 14.6884 0.3225 14.6734 0 14.6322C1.81625 15.8034 3.96875 16.4722 6.29 16.4722C13.835 16.4722 17.96 10.2222 17.96 4.80467C17.96 4.62342 17.9538 4.44842 17.945 4.27467C18.7588 3.69717 19.4425 2.97592 20 2.14592Z" fill="#58A6FD"/>
</svg>
