<svg width="20" height="20" viewBox="0 0 20 20" fill="none" xmlns="http://www.w3.org/2000/svg">
<path d="M10 3.33337C10.0402 3.33338 16.2652 3.33516 17.8252 3.76208C18.6818 3.99281 19.3573 4.66802 19.5879 5.52478C20.0163 7.0898 20 10.3519 20 10.3519C20 10.3959 19.9968 13.607 19.5879 15.1615C19.3572 16.0181 18.6819 16.6936 17.8252 16.9242C16.2625 17.3356 10.0189 17.3363 10 17.3363C10 17.3363 3.75653 17.3368 2.1748 16.9086C1.31818 16.6779 0.642938 16.0023 0.412109 15.1459C0.00268564 13.6063 1.40114e-05 10.3731 0 10.3353C0 10.3353 0.000320821 7.08978 0.412109 5.52478C0.642669 4.66816 1.33466 3.97604 2.1748 3.74548C3.74028 3.33356 10 3.33337 10 3.33337ZM8.00684 13.3334L13.2129 10.3353L8.00684 7.3363V13.3334Z" fill="#58A6FD"/>
</svg>
