<svg width="18" height="20" viewBox="0 0 18 20" fill="none" xmlns="http://www.w3.org/2000/svg">
<path d="M17.5811 9.34549L1.74536 0.477456C1.61214 0.402852 1.45932 0.370687 1.30732 0.38526C1.15533 0.399834 1.01141 0.460451 0.894788 0.559011C0.778169 0.657571 0.69441 0.789377 0.654706 0.936814C0.615002 1.08425 0.621245 1.24029 0.6726 1.38409L3.65957 9.74762C3.71783 9.91074 3.71783 10.089 3.65957 10.2521L0.6726 18.6156C0.621245 18.7594 0.615002 18.9155 0.654706 19.0629C0.69441 19.2104 0.778169 19.3422 0.894788 19.4407C1.01141 19.5393 1.15533 19.5999 1.30732 19.6145C1.45932 19.629 1.61214 19.5969 1.74536 19.5223L17.5811 10.6542C17.6975 10.5891 17.7943 10.4941 17.8617 10.3791C17.9291 10.2641 17.9647 10.1332 17.9647 9.99987C17.9647 9.86655 17.9291 9.73564 17.8617 9.62062C17.7943 9.5056 17.6975 9.41063 17.5811 9.34549Z" fill="white"/>
</svg>
