<svg width="46" height="46" viewBox="0 0 46 46" fill="none" xmlns="http://www.w3.org/2000/svg">
<rect width="46" height="46" transform="translate(-0.00341797)" fill="#363B47" fill-opacity="0.4"/>
<path d="M22.9966 17C23.0326 17 28.6355 17.0015 30.0396 17.3857C30.8102 17.5934 31.4179 18.2009 31.6255 18.9717C32.0111 20.3801 31.9966 23.3164 31.9966 23.3164C31.9966 23.3377 31.9948 26.2421 31.6255 27.6455C31.4179 28.4164 30.8106 29.0249 30.0396 29.2324C28.6331 29.6027 23.0133 29.6025 22.9966 29.6025C22.9966 29.6025 17.3769 29.6033 15.9536 29.2178C15.1826 29.0101 14.5753 28.4018 14.3677 27.6309C13.9992 26.2453 13.9966 23.3358 13.9966 23.3018C13.9966 23.3018 13.997 20.3801 14.3677 18.9717C14.5753 18.201 15.1977 17.5786 15.9536 17.3711C17.3622 17.0003 22.9966 17 22.9966 17ZM21.2026 26L25.8882 23.3018L21.2026 20.6035V26Z" fill="white"/>
</svg>
