<svg width="264" height="164" viewBox="0 0 264 164" fill="none" xmlns="http://www.w3.org/2000/svg">
<g filter="url(#filter0_d_113_14794)">
<rect width="200" height="100" transform="translate(32 32)" fill="white"/>
<g clip-path="url(#clip0_113_14794)">
<path d="M94.3159 65.6826H95.2052C98.2924 65.7497 101.329 66.9913 103.511 69.1893C102.705 70.0115 101.883 70.8001 101.094 71.6222C99.8696 70.5148 98.3931 69.6591 96.7824 69.3571C94.3998 68.8538 91.8327 69.3068 89.8361 70.6659C87.6549 72.092 86.1783 74.5081 85.8595 77.092C85.5072 79.6424 86.2287 82.327 87.8898 84.3068C89.4837 86.2364 91.9166 87.4444 94.4334 87.5283C96.7824 87.6625 99.232 86.9411 100.943 85.2968C102.286 84.139 102.907 82.3773 103.108 80.6659C100.323 80.6659 97.5374 80.6827 94.7522 80.6659V77.2095H106.48C107.084 80.9176 106.212 85.0954 103.393 87.7464C101.514 89.6256 98.9132 90.733 96.2622 90.9511C93.6951 91.2028 91.0441 90.7162 88.7622 89.4746C86.0273 88.0149 83.8461 85.5484 82.7723 82.6457C81.7656 79.978 81.7488 76.9578 82.6884 74.2732C83.5441 71.8236 85.1884 69.6591 87.3025 68.1491C89.3327 66.6558 91.7991 65.8336 94.3159 65.6826Z" fill="#3780FF"/>
<path d="M161.598 66.5557H165.188V90.5154C163.997 90.5154 162.789 90.5322 161.598 90.4986C161.614 82.5288 161.598 74.5422 161.598 66.5557Z" fill="#38B137"/>
<path d="M114.467 74.8608C116.681 74.4413 119.081 74.9111 120.91 76.2366C122.571 77.4111 123.728 79.2567 124.081 81.2702C124.534 83.6024 123.963 86.1527 122.453 87.9983C120.826 90.0621 118.158 91.1695 115.557 91.0017C113.175 90.8675 110.859 89.6762 109.45 87.7299C107.856 85.5822 107.47 82.6292 108.343 80.1124C109.215 77.4111 111.681 75.3473 114.467 74.8608ZM114.97 78.0487C114.064 78.2836 113.225 78.8037 112.621 79.542C110.994 81.4883 111.094 84.6594 112.89 86.4715C113.913 87.5118 115.457 87.9983 116.883 87.7131C118.208 87.4782 119.366 86.589 120.004 85.4145C121.111 83.4178 120.792 80.6661 119.098 79.1057C118.007 78.099 116.413 77.6795 114.97 78.0487Z" fill="#FA3913"/>
<path d="M132.25 74.861C134.784 74.3744 137.552 75.0791 139.448 76.8577C142.536 79.6261 142.871 84.8107 140.237 87.9986C138.643 90.012 136.059 91.1194 133.509 91.0019C131.076 90.9348 128.677 89.7268 127.234 87.7301C125.606 85.5321 125.254 82.512 126.177 79.9449C127.099 77.3275 129.516 75.3308 132.25 74.861ZM132.754 78.0489C131.848 78.2838 131.009 78.804 130.405 79.5254C128.794 81.4382 128.861 84.559 130.589 86.3878C131.613 87.4784 133.207 88.0154 134.683 87.7133C135.992 87.4617 137.167 86.5892 137.804 85.4147C138.895 83.4013 138.576 80.6496 136.865 79.0892C135.774 78.0825 134.18 77.6798 132.754 78.0489Z" fill="#FCBD06"/>
<path d="M147.335 75.8337C149.265 74.6257 151.832 74.2901 153.912 75.3304C154.567 75.6156 155.103 76.1022 155.624 76.5887C155.64 76.1357 155.624 75.6659 155.64 75.1961C156.765 75.2129 157.889 75.1961 159.03 75.2129V90.0115C159.013 92.2431 158.442 94.6088 156.832 96.2364C155.07 98.0317 152.369 98.5854 149.936 98.2162C147.335 97.8303 145.07 95.9344 144.063 93.535C145.07 93.0484 146.127 92.6625 147.167 92.2095C147.754 93.5854 148.946 94.7599 150.439 95.0283C151.932 95.2968 153.661 94.9276 154.634 93.686C155.674 92.4109 155.674 90.6659 155.624 89.1055C154.852 89.8605 153.963 90.5317 152.889 90.7834C150.557 91.4377 147.989 90.6323 146.194 89.0552C144.382 87.478 143.308 85.0451 143.409 82.629C143.459 79.8941 145.003 77.2599 147.335 75.8337ZM150.808 77.9814C149.785 78.1491 148.828 78.7196 148.174 79.5082C146.597 81.3874 146.597 84.3907 148.191 86.2364C149.097 87.327 150.557 87.931 151.966 87.78C153.291 87.6458 154.516 86.8068 155.171 85.6491C156.278 83.686 156.093 81.0183 154.6 79.3069C153.677 78.2498 152.201 77.7297 150.808 77.9814Z" fill="#3780FF"/>
<path d="M169.501 76.6891C171.514 74.81 174.618 74.1724 177.202 75.1623C179.652 76.0851 181.212 78.4173 182.001 80.8167C178.36 82.3267 174.736 83.82 171.095 85.3301C171.598 86.2865 172.37 87.159 173.41 87.5113C174.87 88.0314 176.615 87.8469 177.84 86.8737C178.327 86.5046 178.712 86.018 179.082 85.5482C180.004 86.169 180.927 86.773 181.85 87.3939C180.541 89.3569 178.343 90.7328 175.978 90.9509C173.36 91.2697 170.575 90.263 168.88 88.216C166.095 84.9945 166.363 79.5918 169.501 76.6891ZM171.296 79.7932C170.726 80.6153 170.491 81.622 170.508 82.612C172.941 81.6053 175.373 80.5985 177.806 79.5751C177.404 78.6355 176.431 78.065 175.441 77.914C173.847 77.6287 172.186 78.4844 171.296 79.7932Z" fill="#FA3913"/>
</g>
</g>
<defs>
<filter id="filter0_d_113_14794" x="0" y="0" width="264" height="164" filterUnits="userSpaceOnUse" color-interpolation-filters="sRGB">
<feFlood flood-opacity="0" result="BackgroundImageFix"/>
<feColorMatrix in="SourceAlpha" type="matrix" values="0 0 0 0 0 0 0 0 0 0 0 0 0 0 0 0 0 0 127 0" result="hardAlpha"/>
<feOffset/>
<feGaussianBlur stdDeviation="16"/>
<feComposite in2="hardAlpha" operator="out"/>
<feColorMatrix type="matrix" values="0 0 0 0 0.0344445 0 0 0 0 0.102745 0 0 0 0 0.266667 0 0 0 0.07 0"/>
<feBlend mode="normal" in2="BackgroundImageFix" result="effect1_dropShadow_113_14794"/>
<feBlend mode="normal" in="SourceGraphic" in2="effect1_dropShadow_113_14794" result="shape"/>
</filter>
<clipPath id="clip0_113_14794">
<rect width="100" height="100" fill="white" transform="translate(82 32)"/>
</clipPath>
</defs>
</svg>
