<svg width="264" height="164" viewBox="0 0 264 164" fill="none" xmlns="http://www.w3.org/2000/svg">
<g filter="url(#filter0_d_113_14801)">
<rect width="200" height="100" transform="translate(32 32)" fill="white"/>
<path d="M179.659 70.9602C180.426 70.9198 181.193 70.9198 181.96 70.94C179.659 75.7434 177.439 80.5872 175.199 85.4109H173.322C172.292 82.989 171.081 80.6276 170.012 78.2057C170.758 78.1855 171.505 78.1855 172.252 78.2057C172.898 79.6992 173.665 81.1322 174.25 82.6257C176.046 78.7305 177.903 74.8554 179.659 70.9602Z" fill="#FF0000"/>
<path d="M121.879 73.0195C123.353 73.0397 124.846 73.0397 126.319 73.0195C126.299 74.3314 126.299 75.6634 126.319 76.9753C124.846 76.9551 123.353 76.9753 121.859 76.9551C121.899 75.6432 121.859 74.3314 121.879 73.0195ZM99.5373 78.6706C102.565 76.9551 106.964 77.5404 109.003 80.5072C110.254 82.2631 110.617 84.4832 110.597 86.5821C107.126 86.6023 103.654 86.5821 100.183 86.6023C100.345 87.672 100.809 88.8022 101.798 89.3673C103.21 90.1948 105.431 89.9526 106.137 88.3178C107.57 88.2775 108.983 88.2775 110.416 88.3178C109.972 89.9526 108.781 91.3452 107.287 92.1121C105.673 93.0001 103.735 93.1616 101.939 92.8589C100.042 92.5561 98.286 91.4865 97.2163 89.8921C96.0457 88.1967 95.743 86.0372 96.0053 84.0391C96.2677 81.8393 97.5796 79.7605 99.5373 78.6706ZM101.899 81.1934C100.91 81.6576 100.425 82.7273 100.203 83.7566H106.137C106.016 82.9695 105.733 82.142 105.128 81.5971C104.28 80.7696 102.928 80.7494 101.899 81.1934ZM146.078 77.9037C148.46 77.4799 151.104 77.9844 152.94 79.6394C156.068 82.4246 156.21 87.8133 153.303 90.8003C151.003 93.202 147.148 93.646 144.201 92.2938C141.92 91.2645 140.366 88.9435 140.104 86.4812C140.003 85.0483 140.064 83.5749 140.649 82.2429C141.537 79.9623 143.697 78.3073 146.078 77.9037ZM146.583 81.1934C145.331 81.6374 144.746 82.9897 144.564 84.2208C144.423 85.7547 144.443 87.4903 145.432 88.7618C146.502 90.1544 148.863 90.1141 149.933 88.7417C150.821 87.6316 150.962 86.1179 150.861 84.7455C150.801 83.5346 150.377 82.2429 149.368 81.4962C148.561 80.9512 147.491 80.8705 146.583 81.1934ZM161.921 78.7312C163.395 77.5808 165.494 77.4597 167.189 78.1459C168.4 78.6706 169.308 79.7403 169.732 80.9714C170.216 82.2429 170.075 83.6153 170.075 84.9474C170.075 87.4903 170.055 90.0333 170.095 92.5561C168.622 92.5763 167.149 92.5561 165.655 92.5763V83.8575C165.655 83.1108 165.373 82.3035 164.747 81.8393C163.798 81.1934 162.426 81.3145 161.619 82.1218C160.973 82.7677 160.69 83.696 160.71 84.5841V92.5763C159.257 92.5561 157.784 92.5763 156.331 92.5561C156.331 87.7527 156.351 82.9493 156.331 78.1459C157.764 78.1661 159.176 78.1257 160.609 78.1661C160.589 78.8321 160.589 79.4981 160.569 80.1641C161.013 79.6797 161.376 79.1348 161.921 78.7312ZM82.0391 78.1862H86.6407C87.5691 81.2742 88.558 84.3621 89.4258 87.4702C90.4955 84.4226 91.3028 81.2742 92.3119 78.1862C93.7853 78.1661 95.2788 78.1862 96.7521 78.1661C95.0568 82.9695 93.4018 87.7729 91.7267 92.5763C90.1928 92.5763 88.6589 92.5561 87.125 92.5965C85.3692 87.8133 83.8151 82.9493 82.0391 78.1862ZM111.606 78.1661H115.845C115.825 78.9734 115.845 79.7806 115.804 80.5879C116.168 80.1843 116.43 79.6797 116.813 79.2963C117.762 78.2468 119.316 77.823 120.689 78.1862C120.668 79.4577 120.668 80.7292 120.689 81.9805C119.599 81.8594 118.388 81.8998 117.459 82.5658C116.47 83.252 116.026 84.5235 116.047 85.6941C116.026 87.9949 116.047 90.2755 116.047 92.5763C114.573 92.5763 113.08 92.5561 111.606 92.5965C111.627 87.7729 111.627 82.9695 111.606 78.1661ZM121.879 78.1862C123.373 78.1661 124.846 78.1862 126.34 78.1661C126.319 82.9695 126.34 87.7729 126.34 92.5763C124.866 92.5561 123.373 92.5763 121.879 92.5763V78.1862ZM127.53 78.1661C131.547 78.1862 135.563 78.1661 139.559 78.1862C139.519 79.2963 139.559 80.3861 139.539 81.4962C139.398 81.7787 139.155 81.9805 138.974 82.2227C136.915 84.5033 134.897 86.8445 132.798 89.1049C135.159 89.1453 137.521 89.1049 139.882 89.1251V92.5965C135.765 92.5763 131.648 92.5763 127.53 92.5965V89.2462C129.69 86.8243 131.829 84.4226 134.009 82.0209C134.069 81.8998 134.332 81.7787 134.191 81.6173C131.971 81.6778 129.75 81.6173 127.53 81.6576V78.1661Z" fill="black"/>
</g>
<defs>
<filter id="filter0_d_113_14801" x="0" y="0" width="264" height="164" filterUnits="userSpaceOnUse" color-interpolation-filters="sRGB">
<feFlood flood-opacity="0" result="BackgroundImageFix"/>
<feColorMatrix in="SourceAlpha" type="matrix" values="0 0 0 0 0 0 0 0 0 0 0 0 0 0 0 0 0 0 127 0" result="hardAlpha"/>
<feOffset/>
<feGaussianBlur stdDeviation="16"/>
<feComposite in2="hardAlpha" operator="out"/>
<feColorMatrix type="matrix" values="0 0 0 0 0.0344445 0 0 0 0 0.102745 0 0 0 0 0.266667 0 0 0 0.07 0"/>
<feBlend mode="normal" in2="BackgroundImageFix" result="effect1_dropShadow_113_14801"/>
<feBlend mode="normal" in="SourceGraphic" in2="effect1_dropShadow_113_14801" result="shape"/>
</filter>
</defs>
</svg>
