<svg width="264" height="164" viewBox="0 0 264 164" fill="none" xmlns="http://www.w3.org/2000/svg">
<g filter="url(#filter0_d_113_14792)">
<rect width="200" height="100" transform="translate(32 32)" fill="white"/>
<g clip-path="url(#clip0_113_14792)">
<path d="M97.9463 70.8379C97.967 70.8379 107.924 70.8389 110.407 71.5029C111.782 71.8734 112.862 72.9536 113.228 74.3232C113.892 76.8093 113.893 82 113.893 82C113.893 82.0305 113.89 87.197 113.228 89.6758C112.857 91.0506 111.777 92.1317 110.407 92.4971C107.924 93.1611 97.967 93.1621 97.9463 93.1621C97.9463 93.1621 87.9765 93.1618 85.4854 92.4971C84.1105 92.1266 83.0303 91.0456 82.665 89.6758C82.0031 87.2 82 82.0427 82 82C82 82 82.0003 76.8093 82.665 74.3232C83.0355 72.9486 84.1158 71.8682 85.4854 71.5029C87.9765 70.8382 97.9463 70.8379 97.9463 70.8379ZM94.7598 86.7842L103.045 82L94.7598 77.2158V86.7842Z" fill="#FF0000"/>
<path fill-rule="evenodd" clip-rule="evenodd" d="M128.29 91.1476C127.661 90.7215 127.209 90.0619 126.945 89.164C126.681 88.2659 126.544 87.0736 126.544 85.5819V83.5525C126.544 82.0457 126.697 80.8382 127.001 79.9248C127.305 79.0117 127.782 78.3471 128.427 77.931C129.071 77.515 129.918 77.3019 130.969 77.3019C132.004 77.3019 132.831 77.515 133.455 77.9412C134.079 78.3673 134.535 79.032 134.825 79.935C135.114 80.8382 135.256 82.0457 135.256 83.5474V85.5769C135.256 87.0685 135.114 88.2659 134.835 89.1689C134.556 90.072 134.099 90.7367 133.465 91.1527C132.836 91.5687 131.978 91.782 130.898 91.782C129.792 91.7868 128.919 91.5738 128.29 91.1476ZM131.826 88.9559C131.999 88.4992 132.09 87.7534 132.09 86.7236V82.3653C132.09 81.3607 132.004 80.6302 131.826 80.1634C131.654 79.7017 131.344 79.4683 130.903 79.4683C130.477 79.4683 130.177 79.7017 130 80.1634C129.827 80.6251 129.736 81.3607 129.736 82.3653V86.7236C129.736 87.7585 129.817 88.5044 129.984 88.9559C130.152 89.4125 130.456 89.6408 130.898 89.6408C131.344 89.6408 131.649 89.4125 131.826 88.9559ZM176.727 85.6174V86.3228C176.727 87.2207 176.753 87.8904 176.808 88.3419C176.859 88.7885 176.971 89.1182 177.138 89.3213C177.306 89.5241 177.564 89.6307 177.914 89.6307C178.386 89.6307 178.711 89.4481 178.883 89.0827C179.056 88.7174 179.152 88.1086 179.167 87.2562L181.882 87.4136C181.897 87.5352 181.902 87.7026 181.902 87.9157C181.902 89.2096 181.547 90.1735 180.842 90.8127C180.136 91.452 179.137 91.7716 177.843 91.7716C176.291 91.7716 175.205 91.2846 174.581 90.3105C173.957 89.3364 173.648 87.8345 173.648 85.7951V83.3547C173.648 81.2542 173.972 79.727 174.616 78.7581C175.261 77.7941 176.367 77.312 177.935 77.312C179.015 77.312 179.842 77.51 180.421 77.9057C180.999 78.3013 181.405 78.9152 181.643 79.7524C181.877 80.5895 181.999 81.7464 181.999 83.2177V85.6124H176.727V85.6174ZM177.128 79.7321C176.971 79.9301 176.864 80.2547 176.808 80.7012C176.752 81.1476 176.727 81.8327 176.727 82.7407V83.7454H179.03V82.7407C179.03 81.8426 179 81.1628 178.939 80.7012C178.878 80.2395 178.767 79.9097 178.609 79.722C178.452 79.5343 178.203 79.4379 177.869 79.4379C177.534 79.4328 177.285 79.5343 177.128 79.7321ZM120.629 85.3536L117.047 72.4211H120.172L121.425 78.2811C121.745 79.7271 121.978 80.9549 122.13 81.9747H122.222C122.328 81.244 122.562 80.0213 122.927 78.3013L124.226 72.416H127.351L123.729 85.3536V91.5586H120.629V85.3536ZM145.418 77.5759V91.5535H142.957L142.683 89.8437H142.617C141.948 91.1375 140.943 91.7819 139.609 91.7819C138.68 91.7819 137.995 91.4774 137.554 90.8686C137.113 90.2597 136.895 89.3111 136.895 88.0173V77.5759H140.04V87.8397C140.04 88.4637 140.106 88.9103 140.243 89.174C140.38 89.4378 140.608 89.5748 140.928 89.5748C141.202 89.5748 141.466 89.4935 141.714 89.3263C141.963 89.1588 142.151 88.9457 142.273 88.687V77.5758L145.418 77.5759ZM161.562 77.5759V91.5535H159.102L158.827 89.8437H158.762C158.092 91.1375 157.087 91.7819 155.753 91.7819C154.825 91.7819 154.14 91.4774 153.698 90.8686C153.257 90.2597 153.039 89.3111 153.039 88.0173V77.5759H156.184V87.8397C156.184 88.4637 156.25 88.9103 156.387 89.174C156.524 89.4378 156.752 89.5748 157.072 89.5748C157.346 89.5748 157.61 89.4935 157.858 89.3263C158.107 89.1588 158.295 88.9457 158.417 88.687V77.5758L161.562 77.5759Z" fill="#282828"/>
<path fill-rule="evenodd" clip-rule="evenodd" d="M153.971 74.9528H150.846V91.5534H147.766V74.9528H144.641V72.4212H153.966V74.9528H153.971ZM171.977 79.8132C171.784 78.9304 171.48 78.2912 171.054 77.8955C170.627 77.4997 170.044 77.3018 169.298 77.3018C168.72 77.3018 168.182 77.4641 167.68 77.794C167.177 78.1186 166.792 78.55 166.518 79.0826H166.493V71.7158H163.458V91.5585H166.056L166.376 90.2343H166.442C166.685 90.7062 167.05 91.0766 167.538 91.3504C168.025 91.6245 168.563 91.7615 169.156 91.7615C170.222 91.7615 171.003 91.2693 171.505 90.2901C172.007 89.311 172.256 87.7787 172.256 85.6935V83.4814C172.261 81.9187 172.165 80.696 171.977 79.8133V79.8132ZM169.09 85.5159C169.09 86.5357 169.049 87.3322 168.963 87.9106C168.882 88.4891 168.74 88.9 168.542 89.1435C168.344 89.387 168.08 89.5088 167.746 89.5088C167.487 89.5088 167.248 89.448 167.025 89.3262C166.807 89.2044 166.624 89.0218 166.487 88.7782V80.8381C166.594 80.4575 166.777 80.1481 167.035 79.9047C167.294 79.6611 167.573 79.5393 167.878 79.5393C168.197 79.5393 168.446 79.6661 168.618 79.9146C168.791 80.1633 168.913 80.5894 168.984 81.178C169.05 81.7716 169.085 82.6138 169.085 83.7096V85.5159H169.09Z" fill="#282828"/>
</g>
</g>
<defs>
<filter id="filter0_d_113_14792" x="0" y="0" width="264" height="164" filterUnits="userSpaceOnUse" color-interpolation-filters="sRGB">
<feFlood flood-opacity="0" result="BackgroundImageFix"/>
<feColorMatrix in="SourceAlpha" type="matrix" values="0 0 0 0 0 0 0 0 0 0 0 0 0 0 0 0 0 0 127 0" result="hardAlpha"/>
<feOffset/>
<feGaussianBlur stdDeviation="16"/>
<feComposite in2="hardAlpha" operator="out"/>
<feColorMatrix type="matrix" values="0 0 0 0 0.0344445 0 0 0 0 0.102745 0 0 0 0 0.266667 0 0 0 0.07 0"/>
<feBlend mode="normal" in2="BackgroundImageFix" result="effect1_dropShadow_113_14792"/>
<feBlend mode="normal" in="SourceGraphic" in2="effect1_dropShadow_113_14792" result="shape"/>
</filter>
<clipPath id="clip0_113_14792">
<rect width="100" height="100" fill="white" transform="translate(82 32)"/>
</clipPath>
</defs>
</svg>
